<svg id="Ebene_1" data-name="Ebene 1" xmlns="http://www.w3.org/2000/svg" viewBox="0 0 110.63 109.32"><defs><style>.cls-1{fill:#447291;}.cls-2{font-size:12px;font-family:Arial-Black, Arial Black;font-weight:800;}.cls-2,.cls-8{fill:#fff;}.cls-3{letter-spacing:-0.02em;}.cls-4{font-family:Arial-BoldMT, Arial;font-weight:700;}.cls-5{letter-spacing:-0.04em;}.cls-6{letter-spacing:-0.06em;}.cls-7{fill:#53311e;opacity:0.8;}.cls-8,.cls-9{opacity:0.3;}.cls-10,.cls-12,.cls-9{fill:none;stroke:#fff;stroke-miterlimit:10;}.cls-9{stroke-width:0.5px;}.cls-10{stroke-width:4px;}.cls-11{fill:#c19874;}.cls-12{stroke-width:1.5px;}</style></defs><title>Icon_Dock18_NitroDose_Zeichenfläche_1</title><rect class="cls-1" x="-449.69" y="-765.35" width="566.93" height="879.49"/><text class="cls-2" transform="translate(-276.64 -74.43)">WA<tspan class="cls-3" x="21.33" y="0">R</tspan><tspan x="30.46" y="0">UM COLD BREW NIT</tspan><tspan class="cls-3" x="163.13" y="0">R</tspan><tspan x="172.25" y="0">O COFFEE?</tspan><tspan x="-41.87" y="14.4">_______________________________________________________</tspan><tspan class="cls-4"><tspan x="-70.91" y="28.8">Durch unseren speziellen 20-stündigen Kaltbrühprozess können wir </tspan><tspan x="-70.37" y="43.2">besonders viele</tspan><tspan class="cls-5" x="20.34" y="43.2"> </tspan><tspan x="23.23" y="43.2">Aromen und die natürliche Süße unserer Fair-</tspan><tspan class="cls-6" x="284.61" y="43.2">T</tspan><tspan x="291.28" y="43.2">rade </tspan><tspan x="-68.9" y="57.6">Bohnen erhalten. Mit Hilfe des innovativen Nitro-Effekts bekommen </tspan><tspan x="-45.59" y="72">wir eine einzigartige aber natürliche Crema auf dem Kaffee.</tspan></tspan></text><rect class="cls-7" x="46.14" y="39.24" width="18.74" height="37.54"/><rect class="cls-8" x="52.46" y="72.65" width="6.09" height="4.6"/><circle class="cls-9" cx="54.53" cy="70.74" r="0.78"/><circle class="cls-9" cx="56.45" cy="68.22" r="0.93"/><circle class="cls-9" cx="53.98" cy="66.64" r="1.12"/><circle class="cls-9" cx="56.43" cy="64.21" r="1.35"/><rect class="cls-10" x="21.24" y="20.49" width="69.2" height="69.2" transform="translate(-22.6 55.62) rotate(-45)"/><rect class="cls-11" x="46.22" y="36.67" width="18.74" height="3.15"/><circle class="cls-9" cx="53.63" cy="61.41" r="1.55"/><circle class="cls-9" cx="56.55" cy="58.19" r="1.67"/><polygon class="cls-12" points="63.96 77.5 47.22 77.5 46.22 74.95 46.22 34.81 47.22 32.95 63.96 32.95 64.96 34.81 64.96 74.95 63.96 77.5"/></svg>