<svg id="Ebene_1" data-name="Ebene 1" xmlns="http://www.w3.org/2000/svg" viewBox="0 0 80.37 78.44"><defs><style>.cls-1{fill:#447291;}.cls-2{fill:#fff;}.cls-3{fill:none;stroke:#fff;stroke-miterlimit:10;stroke-width:3px;}</style></defs><title>Icon_Dock18_Bohne</title><rect class="cls-1" x="-57.64" y="-781.74" width="566.93" height="879.49"/><path class="cls-2" d="M30.79,29.55H30.7a5,5,0,0,0-3.51,3.05A11.12,11.12,0,0,0,26.42,39s0,.07,0,.1a11.17,11.17,0,0,0,2.71,5.83,5.8,5.8,0,0,0,2.92,1.76l0-.06c2.09-2.42.91-4.4-.26-6.39a14.19,14.19,0,0,1-1.29-2.51h0c-.63-1.6-.26-3.22.11-4.84A9.42,9.42,0,0,0,31,29.52l-.25,0Zm2.88,17.13a5.07,5.07,0,0,0,3.38-3,11.06,11.06,0,0,0,.76-6.39.28.28,0,0,1,0-.09,11,11,0,0,0-2.72-5.83,5.87,5.87,0,0,0-2.74-1.72,11.15,11.15,0,0,1-.43,3.52,7.15,7.15,0,0,0-.15,4.13v0h0A14.25,14.25,0,0,0,33,39.59c1.29,2.17,2.58,4.35.72,7.09Zm19.88-12a6.21,6.21,0,0,1-.76,5.82,12.41,12.41,0,0,1-5.59,4.58h0A12.5,12.5,0,0,1,40,46a7.77,7.77,0,0,1-2.37-.86,5.87,5.87,0,0,1-4,2.8,6.22,6.22,0,0,1-5.46-2.18,12.36,12.36,0,0,1-3.05-6.55h0A12.34,12.34,0,0,1,26,32.07a6.19,6.19,0,0,1,4.51-3.77h0A6.23,6.23,0,0,1,36,30.47a11.43,11.43,0,0,1,2.3,3.74,13.69,13.69,0,0,1,3.32-2h0a12.3,12.3,0,0,1,7.16-.94,6.21,6.21,0,0,1,4.76,3.44ZM38.26,44.06a6.63,6.63,0,0,0,2,.72A11.09,11.09,0,0,0,46.65,44l.1-.05a11.09,11.09,0,0,0,5-4.07,5.83,5.83,0,0,0,1-3.08,11.27,11.27,0,0,1-3.53.46,7.11,7.11,0,0,0-4,.87h0a14.52,14.52,0,0,0-1.93,1.71c-1.3,1.3-2.6,2.61-4.42,2.79a9.84,9.84,0,0,1-.53,1.47Zm.83-2.88a7.45,7.45,0,0,0,3.23-2.28A14.79,14.79,0,0,1,44.43,37h0c1.4-1,3.06-1,4.72-1.1a9.54,9.54,0,0,0,3.35-.47c0-.1-.07-.19-.11-.28a5,5,0,0,0-3.84-2.69,11.07,11.07,0,0,0-6.37.83l-.11,0a12.38,12.38,0,0,0-3.34,2.15c.13.49.24,1,.33,1.51h0a13.45,13.45,0,0,1,0,4.15Z"/><rect class="cls-3" x="18.2" y="16.15" width="42.04" height="42.04" transform="translate(-14.8 38.62) rotate(-45)"/></svg>