<svg id="Ebene_1" data-name="Ebene 1" xmlns="http://www.w3.org/2000/svg" viewBox="0 0 77.49 78.44"><defs><style>.cls-1{fill:#447291;}.cls-2{fill:#fff;}.cls-3{fill:none;stroke:#fff;stroke-miterlimit:10;stroke-width:3px;}</style></defs><title>Icon_Dock18_Wasser_Zeichenfläche 1</title><rect class="cls-1" x="-135.13" y="-781.74" width="566.93" height="879.49"/><path class="cls-2" d="M42.29,46.28c-.74-1.22-1.47-2.23-1.5-2.27l-.53-.73-.53-.73-.53.73-.53.73s-.76,1.05-1.5,2.27c-1.11,1.84-1.63,3.12-1.63,4a4.19,4.19,0,0,0,8.38,0C43.92,49.4,43.4,48.12,42.29,46.28Z"/><path class="cls-1" d="M39.73,53.23a2.9,2.9,0,0,1-2.89-2.89.65.65,0,0,1,1.3,0,1.59,1.59,0,0,0,1.59,1.58.66.66,0,0,1,.65.66A.65.65,0,0,1,39.73,53.23Z"/><path class="cls-2" d="M33.69,38.67c-.62-1-1.24-1.88-1.27-1.92L32,36.14l-.45-.61-.44.61-.45.61s-.64.89-1.27,1.92A7.58,7.58,0,0,0,28,42.07a3.53,3.53,0,0,0,7.06,0A7.46,7.46,0,0,0,33.69,38.67Z"/><path class="cls-1" d="M31.53,44.52a2.43,2.43,0,0,1-2.43-2.43.55.55,0,1,1,1.09,0,1.34,1.34,0,0,0,1.34,1.33.55.55,0,0,1,.55.55A.54.54,0,0,1,31.53,44.52Z"/><path class="cls-2" d="M46.74,32.88c-.62-1-1.24-1.88-1.26-1.91L45,30.35l-.45-.61-.44.61-.45.62s-.64.88-1.26,1.91a7.5,7.5,0,0,0-1.38,3.41,3.54,3.54,0,0,0,7.07,0A7.5,7.5,0,0,0,46.74,32.88Z"/><path class="cls-1" d="M44.58,38.74a2.44,2.44,0,0,1-2.43-2.44.55.55,0,0,1,.55-.55.55.55,0,0,1,.55.55,1.34,1.34,0,0,0,1.33,1.34.54.54,0,0,1,.55.55A.55.55,0,0,1,44.58,38.74Z"/><rect class="cls-3" x="17.72" y="16.16" width="42.1" height="42.1" transform="translate(-14.96 38.31) rotate(-45)"/><path class="cls-2" d="M33.36,34.63l.56.36.55-.36V32.91l1,.54.49-.25v-.64l-1.43-.81V30.61l1,.62V30.1l1.05.6v1.63l.51.29.51-.29V31.26l1.43.81.61-.28v-.68l-1.45-.87.91-.51v-.58l-.47-.34-1.45.82-1-.54,1-.58-1-.61,1-.64,1.45.86.5-.27v-.61l-1-.53,1.51-.87V25.2l-.54-.33-1.55.84V24.57l-.53-.23-.5.23v1.78l-1,.57V25.68l-1,.62V25.16L36,24.33v-.55l-.5-.33-1,.55V22.28l-.55-.36-.56.36V24l-1-.54-.49.29v.6l1.43.81V26.3l-1.07-.57V26.9l-1-.58V24.66l-.56-.32-.46.31v1.11l-1.51-.88-.58.31v.69l1.52.83-1,.54v.63l.54.26,1.42-.83,1,.57-1,.6,1,.58,0,0-1,.56-1.42-.83-.56.31v.63l1,.49-1.58.87v.69l.64.27,1.5-.85v1.09l.46.3.55-.33V30.65l1-.57v1.2l1-.67v1.14l-1.43.81v.61l.49.28,1-.54ZM33,28.49l.49-.81h1l.47.81-.44.77h-1Z"/></svg>