<svg id="Ebene_1" data-name="Ebene 1" xmlns="http://www.w3.org/2000/svg" viewBox="0 0 76.28 78.44"><defs><style>.cls-1{fill:#447291;}.cls-2{fill:none;stroke:#fff;stroke-miterlimit:10;stroke-width:3px;}.cls-3{fill:#fff;}</style></defs><title>Icon_Dock18_Zeit_Zeichenfläche 1_Zeichenfläche 1</title><rect class="cls-1" x="-211.41" y="-781.74" width="566.93" height="879.49"/><rect class="cls-2" x="18.23" y="16.06" width="42.37" height="42.37" transform="translate(-14.79 38.78) rotate(-45)"/><polygon class="cls-3" points="33.24 43.66 32.2 43.66 32.2 42.58 31.25 42.58 31.25 45.66 32.2 45.66 32.2 44.41 33.24 44.41 33.24 45.66 34.2 45.66 34.2 42.58 33.24 42.58 33.24 43.66"/><path class="cls-3" d="M36.3,42.53a1.46,1.46,0,0,0-1.59,1.59,1.76,1.76,0,0,0,.21.9,1.35,1.35,0,0,0,.56.53,2,2,0,0,0,.86.17,1.74,1.74,0,0,0,.86-.2,1.23,1.23,0,0,0,.52-.54,1.88,1.88,0,0,0,.19-.88,1.56,1.56,0,0,0-.42-1.16A1.6,1.6,0,0,0,36.3,42.53Zm.49,2.27a.66.66,0,0,1-.95,0,1,1,0,0,1-.18-.67,1,1,0,0,1,.18-.68.6.6,0,0,1,.46-.2.63.63,0,0,1,.48.2,1,1,0,0,1,.17.64A1.14,1.14,0,0,1,36.79,44.8Z"/><path class="cls-3" d="M40.43,44.46a.57.57,0,0,1-.14.4.56.56,0,0,1-.39.14.5.5,0,0,1-.39-.15.53.53,0,0,1-.14-.39V42.58h-.95v1.84a1.83,1.83,0,0,0,.09.52,1,1,0,0,0,.2.35,1,1,0,0,0,.33.27,1.34,1.34,0,0,0,.44.12,4.77,4.77,0,0,0,.5,0,1.82,1.82,0,0,0,.66-.11,1,1,0,0,0,.38-.25,1.08,1.08,0,0,0,.27-.43,1.44,1.44,0,0,0,.09-.51V42.58h-1Z"/><path class="cls-3" d="M44.46,44.58a.58.58,0,0,0-.16-.16.88.88,0,0,0-.24-.12,1,1,0,0,0,.33-.12.86.86,0,0,0,.3-.3.8.8,0,0,0,.11-.44.87.87,0,0,0-.14-.5.71.71,0,0,0-.38-.28,2,2,0,0,0-.67-.08H42v3.08h1V44.41h.08a.42.42,0,0,1,.23.07.91.91,0,0,1,.18.24l.51.94h1.07l-.46-.89A1.08,1.08,0,0,0,44.46,44.58Zm-.68-.89a.27.27,0,0,1-.15.1l-.25,0H43V43.2h.41a.59.59,0,0,1,.36.08.3.3,0,0,1,.09.23A.28.28,0,0,1,43.78,43.69Z"/><path class="cls-3" d="M47.47,43.86a4.2,4.2,0,0,0-.89-.27.85.85,0,0,1-.32-.11.17.17,0,0,1-.07-.14.25.25,0,0,1,.08-.17.37.37,0,0,1,.25-.07.46.46,0,0,1,.32.1.53.53,0,0,1,.15.3l.9,0a.93.93,0,0,0-.37-.7,1.54,1.54,0,0,0-.9-.22,1.91,1.91,0,0,0-.76.12.86.86,0,0,0-.41.33.75.75,0,0,0-.14.45.74.74,0,0,0,.27.59,1.91,1.91,0,0,0,.89.38,1,1,0,0,1,.49.18.26.26,0,0,1,.1.21A.25.25,0,0,1,47,45a.43.43,0,0,1-.31.1.48.48,0,0,1-.42-.19.67.67,0,0,1-.12-.33l-.91,0a1.22,1.22,0,0,0,.34.77,1.56,1.56,0,0,0,1.09.31,2,2,0,0,0,.75-.13,1.12,1.12,0,0,0,.45-.38,1,1,0,0,0,.17-.55.9.9,0,0,0-.12-.46A1,1,0,0,0,47.47,43.86Z"/><path class="cls-3" d="M52.68,33.62l-2.26.9a1.22,1.22,0,0,0,.07.17l2.29-.82A2.6,2.6,0,0,0,52.68,33.62Z"/><path class="cls-3" d="M51.92,31.94l-2.13,1.18a.59.59,0,0,0,0,.08L52,32.09Z"/><path class="cls-3" d="M50.92,36.11l2.38-.53c0-.14-.07-.28-.11-.42l-2.36.6Z"/><path class="cls-3" d="M50.69,42.52l2.31.76c.09-.27.17-.55.25-.83l-2.36-.63C50.83,42.06,50.77,42.29,50.69,42.52Z"/><path class="cls-3" d="M51,41.31l2.38.52c0-.24.09-.47.13-.71l-2.4-.4C51.09,40.92,51.05,41.11,51,41.31Z"/><path class="cls-3" d="M41.07,50.62A11.84,11.84,0,1,1,44.6,28.25L43,30.34h6.35l-.63-2.22-1.1-3.89-1.56,2.07a14,14,0,0,0-3.19-1.23c-.37-.09-.75-.17-1.12-.23A14.22,14.22,0,0,0,28,30.31,14.27,14.27,0,0,0,41.4,53a14.19,14.19,0,0,0,9.3-5.39l-1.93-1.5A11.77,11.77,0,0,1,41.07,50.62Z"/><path class="cls-3" d="M51.14,37.25l0,.22,2.42-.26c0-.1,0-.2,0-.3l0-.21-2.41.35Z"/><path class="cls-3" d="M51.24,39.58c0,.17,0,.34,0,.51l2.42.27c0-.2,0-.4.05-.6Z"/><path class="cls-3" d="M51.25,38.8h2.44c0-.17,0-.35,0-.53l-2.44.08C51.25,38.5,51.25,38.65,51.25,38.8Z"/><path class="cls-3" d="M49.62,44.89l2.1,1.24A11.37,11.37,0,0,0,52.3,45L50.11,44C50,44.29,49.8,44.59,49.62,44.89Z"/><path class="cls-3" d="M50.23,43.71l2.22,1c.15-.32.28-.65.4-1l-2.29-.84Q50.41,43.32,50.23,43.71Z"/><path class="cls-3" d="M48.87,46l0,0,1.94,1.48,0,0c.28-.38.54-.76.78-1.16l-2.07-1.27C49.32,45.38,49.11,45.71,48.87,46Z"/><path class="cls-3" d="M39.17,41.25H31.38a4.82,4.82,0,0,1,.82-2.17,10.85,10.85,0,0,1,2.54-2.4,7.13,7.13,0,0,0,1.46-1.29,1.45,1.45,0,0,0,.32-.83,1,1,0,0,0-.31-.73,1.12,1.12,0,0,0-.8-.3,1.09,1.09,0,0,0-.81.31,1.89,1.89,0,0,0-.42,1.1l-2.6-.21A4,4,0,0,1,32.14,33a2.57,2.57,0,0,1,1.15-.94,5.15,5.15,0,0,1,2.05-.33,5.7,5.7,0,0,1,2.13.31,2.6,2.6,0,0,1,1.2,1,2.53,2.53,0,0,1,.44,1.45,3,3,0,0,1-.5,1.63,6.93,6.93,0,0,1-1.82,1.71c-.52.36-.87.61-1,.76s-.38.33-.62.56h4.05Z"/><path class="cls-3" d="M40.28,36.54a5.59,5.59,0,0,1,1-3.73,3.73,3.73,0,0,1,2.92-1.06,4.49,4.49,0,0,1,1.55.23,3,3,0,0,1,1,.61,3.54,3.54,0,0,1,.6.78,3.85,3.85,0,0,1,.35,1,8.68,8.68,0,0,1,.26,2.18,6.34,6.34,0,0,1-.86,3.72,3.41,3.41,0,0,1-3,1.18,4.11,4.11,0,0,1-1.9-.38,3.09,3.09,0,0,1-1.2-1.1,4.09,4.09,0,0,1-.52-1.41A9.37,9.37,0,0,1,40.28,36.54Zm2.57,0A6.26,6.26,0,0,0,43.17,39a1,1,0,0,0,.91.66.94.94,0,0,0,.69-.28,1.73,1.73,0,0,0,.43-.88,9.35,9.35,0,0,0,.13-1.86,6.53,6.53,0,0,0-.31-2.5,1,1,0,0,0-1-.64,1,1,0,0,0-.93.65A6.83,6.83,0,0,0,42.85,36.55Z"/></svg>