<?xml version="1.0" encoding="UTF-8"?>
<svg width="66px" height="81px" viewBox="0 0 66 81" version="1.1" xmlns="http://www.w3.org/2000/svg" xmlns:xlink="http://www.w3.org/1999/xlink">
    <!-- Generator: Sketch 53.2 (72643) - https://sketchapp.com -->
    <title>Path</title>
    <desc>Created with Sketch.</desc>
    <g id="Page-1" stroke="none" stroke-width="1" fill="none" fill-rule="evenodd">
        <path d="M40.5,77.0235294 C44,73.6235294 44.5,72.5235294 44.5,68.8235294 C44.5,65.1235294 44,64.0235294 40.5,60.7235294 C36,56.4235294 35.4,54.1235294 38.8,53.6235294 C41.6,53.2235294 41.7,50.4235294 38.8,50.0235294 C36.7,49.7235294 36.7,49.4235294 36.6,32.7235294 L36.6,15.8235294 L38.9,15.8235294 C40.2,15.8235294 43.1,17.2235294 45.5,18.9235294 L49.7,22.0235294 L47.1,24.7235294 L44.4,27.5235294 L53.7,28.8235294 C58.8,29.5235294 63.5,30.3235294 64.2,30.5235294 C65.1,30.9235294 65.5,30.1235294 65.5,28.2235294 C65.5,24.8235294 62.9,11.9235294 62,11.0235294 C61.7,10.7235294 60.3,11.6235294 58.8,13.0235294 L56.2,15.6235294 L51.5,12.2235294 C48.9,10.4235294 44.4,8.22352941 41.4,7.52352941 C36.7,6.32352941 36,5.72352941 35.7,3.42352941 C35.4,1.42352941 34.8,0.823529412 32.9,0.823529412 C31,0.823529412 30.5,1.32352941 30.5,3.32352941 C30.5,4.72352941 29.9,6.02352941 29.3,6.22352941 C28.6,6.42352941 25.8,7.12352941 23,7.72352941 C20.3,8.32352941 16.1,10.2235294 13.7,11.8235294 C8.6,15.4235294 8.1,15.4235294 6.1,12.6235294 C5.2,11.4235294 4.3,10.7235294 3.9,11.0235294 C3.3,11.7235294 0.6,26.0235294 0.5,28.9235294 C0.5,30.3235294 1.4,30.3235294 10.3,29.0235294 C15.6,28.3235294 20.2,27.4235294 20.4,27.2235294 C20.7,27.0235294 19.8,25.7235294 18.6,24.4235294 C15.9,21.5235294 16.3,20.4235294 21.5,17.8235294 C28.7,14.1235294 28.5,13.8235294 28.5,32.7235294 C28.5,48.7235294 28.4,49.6235294 26.5,50.1235294 C25.4,50.4235294 24.5,51.3235294 24.5,52.2235294 C24.5,53.1235294 25.3,53.8235294 26.5,53.8235294 C29.3,53.8235294 29.1,57.4235294 26.1,59.3235294 C22.7,61.6235294 20.2,67.2235294 21,70.9235294 C21.4,72.5235294 23.3,75.4235294 25.2,77.3235294 C30.3,82.3235294 35,82.2235294 40.5,77.0235294 Z" id="Path" fill="#000000" transform="translate(33.000000, 40.911765) scale(1, -1) translate(-33.000000, -40.911765) "></path>
    </g>
</svg>